<!-- Generated by IcoMoon.io -->
<svg version="1.1" xmlns="http://www.w3.org/2000/svg" width="32" height="32" viewBox="0 0 32 32">
<title>icons_favorites-form</title>
<path fill="#515151" d="M18.944 25.152c-0.192 0-0.384-0.064-0.576-0.192l-1.856-1.344-1.792 1.344c-0.32 0.256-0.832 0.256-1.152 0s-0.512-0.704-0.384-1.088l0.704-2.176-1.856-1.344c-0.32-0.256-0.512-0.704-0.384-1.088s0.512-0.704 0.96-0.704h2.304l0.704-2.176c0.128-0.384 0.512-0.704 0.96-0.704s0.832 0.256 0.96 0.704l0.704 2.176h2.24c0.448 0 0.832 0.256 0.96 0.704 0.128 0.384 0 0.832-0.384 1.088l-1.856 1.344 0.704 2.176c0.128 0.384 0 0.832-0.384 1.088-0.128 0.128-0.32 0.192-0.576 0.192zM12.608 19.456c-0.064 0-0.064 0-0.064 0.064s0 0.064 0.064 0.128l2.368 1.728-0.896 2.816c0 0.064 0 0.064 0.064 0.128h0.128l2.368-1.728 2.368 1.728h0.128c0 0 0.064-0.064 0.064-0.128l-0.896-2.816 2.368-1.728c0 0 0.064-0.064 0.064-0.128s-0.064-0.064-0.064-0.064h-2.944l-1.088-2.816c0-0.064-0.128-0.064-0.192 0l-0.896 2.816h-2.944z"></path>
<path fill="#4e4e4e" d="M10.24 8.128h7.488c0.192 0 0.384-0.192 0.384-0.384s-0.192-0.384-0.384-0.384h-7.488c-0.192 0-0.384 0.192-0.384 0.384s0.192 0.384 0.384 0.384z"></path>
<path fill="#4e4e4e" d="M10.24 12.288h12.288c0.192 0 0.384-0.192 0.384-0.384s-0.128-0.384-0.32-0.384h-12.352c-0.192 0-0.384 0.192-0.384 0.384s0.192 0.384 0.384 0.384z"></path>
<path fill="#4e4e4e" d="M10.24 8.128h7.488c0.256 0 0.448-0.192 0.448-0.448s-0.192-0.448-0.448-0.448h-7.488c-0.256 0-0.448 0.192-0.448 0.448s0.256 0.448 0.448 0.448z"></path>
<path fill="#4e4e4e" d="M9.792 11.904c0 0.256 0.192 0.448 0.448 0.448h12.288c0.256 0 0.448-0.192 0.448-0.448s-0.192-0.448-0.448-0.448h-12.288c-0.192 0-0.448 0.256-0.448 0.448z"></path>
<path fill="#4e4e4e" d="M27.072 8.256c0 0 0-0.064 0-0.064s-0.064-0.064-0.064-0.064c0 0 0-0.064-0.064-0.064l-5.056-5.056c0 0-0.064-0.064-0.064-0.064s-0.064-0.064-0.064-0.064c-0.064 0-0.128 0-0.128 0h-15.232c-0.256 0-0.448 0.192-0.448 0.448v25.344c0 0.256 0.192 0.448 0.448 0.448h20.224c0.256 0 0.448-0.192 0.448-0.448v-20.352c0 0 0-0.064 0-0.064zM22.016 4.288l3.584 3.584h-3.584v-3.584zM26.24 28.16h-19.392v-24.512h14.272v4.672c0 0.256 0.192 0.448 0.448 0.448h4.672v19.392z"></path>
<path fill="#4e4e4e" d="M27.072 8.256c0 0 0 0 0 0s0-0.064 0-0.064c0 0-0.064-0.064-0.064-0.064s0-0.064-0.064-0.064l-5.056-5.056c0 0-0.064 0-0.064-0.064 0 0-0.064-0.064-0.064-0.064-0.064 0-0.128 0-0.128 0h-15.232c-0.192 0-0.384 0.192-0.384 0.384v25.344c0 0.192 0.192 0.384 0.384 0.384h20.224c0.192 0 0.384-0.192 0.384-0.384v-20.288c0.064 0 0.064-0.064 0.064-0.064zM25.728 7.936h-3.712v-3.776l3.712 3.776zM6.784 28.16v-24.512h14.336v4.672c0 0.192 0.192 0.384 0.384 0.384h4.736v19.456h-19.456z"></path>
</svg>
