<!-- Generated by IcoMoon.io -->
<svg version="1.1" xmlns="http://www.w3.org/2000/svg" width="32" height="32" viewBox="0 0 32 32">
<title>icons_end-call</title>
<path fill="#444" d="M16.533 3.84c-6.72 0-12.16 5.44-12.16 12.16s5.44 12.16 12.16 12.16 12.16-5.44 12.16-12.16c0-6.72-5.44-12.16-12.16-12.16zM16.533 25.92c-5.547 0-9.92-4.48-9.92-9.92 0-5.547 4.48-9.92 9.92-9.92 5.547 0 9.92 4.48 9.92 9.92 0 5.547-4.48 9.92-9.92 9.92z"></path>
<path fill="#444" d="M19.733 10.987l-3.2 3.2-3.2-3.2-1.813 1.813 3.2 3.2-3.2 3.2 1.813 1.813 3.2-3.2 3.2 3.2 1.813-1.813-3.2-3.2 3.2-3.2z"></path>
</svg>
