<!-- Generated by IcoMoon.io -->
<svg version="1.1" xmlns="http://www.w3.org/2000/svg" width="32" height="32" viewBox="0 0 32 32">
<title>icons_login</title>
<path fill="#444" d="M16 17.6c3.52 0 6.4-5.013 6.4-8.747s-2.88-6.72-6.4-6.72c-3.52 0-6.4 2.987-6.4 6.72s2.88 8.747 6.4 8.747zM26.987 22.293c-1.173-1.92-7.467-3.413-10.88-3.413-3.52 0-9.707 1.493-10.88 3.413-1.28 1.92-1.707 4.587-1.92 6.293 0 0.32 0.107 0.533 0.533 0.64 1.28 0.427 5.333 1.28 12.373 1.28 6.933 0 11.093-0.853 12.373-1.28 0.32-0.107 0.533-0.32 0.533-0.64-0.427-1.707-0.96-4.373-2.133-6.293z"></path>
</svg>
