<!-- Generated by IcoMoon.io -->
<svg version="1.1" xmlns="http://www.w3.org/2000/svg" width="32" height="32" viewBox="0 0 32 32">
<title>icons_chat-bubble</title>
<path fill="#444" d="M29.12 31.253c-0.32 0-0.64-0.107-0.96-0.213-3.84-2.027-8.213-4.267-9.6-4.8-1.067 0.213-2.027 0.32-3.093 0.32-8.107 0-14.613-5.76-14.613-12.8s6.507-12.8 14.613-12.8 14.613 5.76 14.613 12.8c0 1.813-0.427 3.52-1.28 5.227-0.107 0.32-0.32 0.533-0.427 0.853 0.32 1.493 1.493 5.44 2.56 8.96 0.213 0.747 0 1.6-0.64 2.133-0.213 0.107-0.747 0.32-1.173 0.32zM18.667 22.187c0.64 0 1.92 0.427 7.147 3.2-1.813-6.187-1.707-6.507-1.173-7.253 0.213-0.32 0.427-0.64 0.64-1.067 0.533-1.067 0.853-2.24 0.853-3.413 0-4.907-4.8-8.96-10.667-8.96s-10.667 3.947-10.667 8.96 4.8 8.96 10.667 8.96c0.96 0 1.92-0.107 2.773-0.32 0.213-0.107 0.32-0.107 0.427-0.107zM27.947 20.373c0 0 0 0 0 0s0 0 0 0z"></path>
</svg>
