<!-- Generated by IcoMoon.io -->
<svg version="1.1" xmlns="http://www.w3.org/2000/svg" width="32" height="32" viewBox="0 0 32 32">
<title>icons_logo-mark</title>
<path fill="#444" d="M15.68 3.2c-6.827 0-10.56 3.733-10.56 10.773v3.947c0 7.147 3.627 10.773 10.56 10.773s10.56-3.733 10.56-10.773v-3.947c0.107-7.040-3.627-10.773-10.56-10.773zM21.12 22.933c0 0.747-0.64 1.387-1.493 1.387h-7.68c-0.747 0-1.493-0.64-1.493-1.387v-13.867c0-0.747 0.64-1.387 1.493-1.387h7.68c0.747 0 1.493 0.64 1.493 1.387v13.867z"></path>
<path fill="#444" d="M12.762 17.522v-2.027h5.973v2.027h-5.973z"></path>
<path fill="#444" d="M16.738 19.587h-2.027v-5.973h2.027v5.973z"></path>
</svg>
