<!-- Generated by IcoMoon.io -->
<svg version="1.1" xmlns="http://www.w3.org/2000/svg" width="32" height="32" viewBox="0 0 32 32">
<title>icons_export-arrow</title>
<path fill="#444" d="M19.093 2.56c-0.107-0.107-0.32-0.213-0.533-0.213-0.427 0-0.747 0.32-0.747 0.747v5.867h-6.613c-5.547 0-10.027 4.267-10.24 9.813-0.32 5.76 3.947 10.453 9.493 10.88 0.427 0 0.853-0.32 0.853-0.747v0c0-0.32-0.32-0.64-0.64-0.747-3.2-0.32-5.547-3.093-5.333-6.293 0.213-3.093 2.773-5.547 5.867-5.547h6.613v5.867c0 0.427 0.32 0.747 0.747 0.747 0.213 0 0.32-0.107 0.533-0.213l11.947-10.133-11.947-10.027z"></path>
</svg>
