<!-- Generated by IcoMoon.io -->
<svg version="1.1" xmlns="http://www.w3.org/2000/svg" width="32" height="32" viewBox="0 0 32 32">
<title>icons_event-messages</title>
<path fill="#444" d="M15.893 3.2c-7.573 0-13.76 5.333-13.76 11.84 0 2.667 1.067 5.12 2.773 7.040l-2.773 6.72 7.147-3.413c1.92 0.96 4.267 1.493 6.613 1.493 7.573 0 13.76-5.333 13.76-11.84-0.107-6.507-6.187-11.84-13.76-11.84zM9.6 17.92c-1.067 0-1.92-0.853-1.92-1.92s0.853-1.92 1.92-1.92c1.067 0 1.92 0.853 1.92 1.92s-0.853 1.92-1.92 1.92zM15.893 17.92c-1.067 0-1.92-0.853-1.92-1.92s0.853-1.92 1.92-1.92c1.067 0 1.92 0.853 1.92 1.92-0.107 1.067-0.96 1.92-1.92 1.92zM22.080 17.92c-1.067 0-1.92-0.853-1.92-1.92s0.853-1.92 1.92-1.92c1.067 0 1.92 0.853 1.92 1.92s-0.853 1.92-1.92 1.92z"></path>
</svg>
