<!-- Generated by IcoMoon.io -->
<svg version="1.1" xmlns="http://www.w3.org/2000/svg" width="32" height="32" viewBox="0 0 32 32">
<title>icons_add-caller</title>
<path fill="#444" d="M16.96 19.52c0-0.32-0.32-0.64-0.64-0.64h-4.16c-0.32 0-0.64-0.32-0.64-0.64 0 0-0.32-2.347 3.627-3.307 1.387 0.853 2.987 1.387 4.8 1.387 1.707 0 3.413-0.533 4.8-1.387 2.347 0.747 4.053 2.88 4.053 5.44v3.307c0 0.32-0.213 0.533-0.533 0.533h-10.667c-0.32 0-0.533-0.213-0.533-0.533v-4.16z"></path>
<path fill="#444" d="M1.707 21.227h4.907v-4.907h2.667v4.907l4.907-0.107 0.107 2.667-4.907 0.107v4.907h-2.667l-0.107-4.907-4.8 0.107z"></path>
<path fill="#444" d="M26.027 8.427c0 3.299-2.674 5.973-5.973 5.973s-5.973-2.674-5.973-5.973c0-3.299 2.674-5.973 5.973-5.973s5.973 2.674 5.973 5.973z"></path>
</svg>
