<!-- Generated by IcoMoon.io -->
<svg version="1.1" xmlns="http://www.w3.org/2000/svg" width="32" height="32" viewBox="0 0 32 32">
<title>icons_eye</title>
<path fill="#444" d="M16.107 5.973c-9.28 0-15.573 8.747-15.573 10.027s6.293 10.027 15.573 10.027 15.573-8.747 15.573-10.027c0-1.28-6.293-10.027-15.573-10.027zM16.107 23.253c-4.16 0-7.467-3.2-7.467-7.253 0-3.947 3.307-7.253 7.467-7.253s7.467 3.2 7.467 7.253c0 4.053-3.307 7.253-7.467 7.253zM16.427 15.68c-0.853-0.96 1.707-4.267-0.32-4.267-2.56 0-4.693 2.027-4.693 4.48s2.133 4.48 4.693 4.48c2.56 0 4.693-2.027 4.693-4.48 0-1.813-3.627 0.64-4.373-0.213z"></path>
</svg>
