<!-- Generated by IcoMoon.io -->
<svg version="1.1" xmlns="http://www.w3.org/2000/svg" width="32" height="32" viewBox="0 0 32 32">
<title>icons_download-form</title>
<path fill="#444" d="M7.893 25.387c0 0-0.107-0.107-0.107-0.213v-17.92c0-0.107 0.107-0.213 0.107-0.213h7.68c0.747 0 1.387 0.533 1.387 1.28l0.107 2.987 3.947 0.64c0.213 0 0.427 0.32 0.427 0.533v2.88c0.427-0.427 1.067-0.747 1.707-0.853v-2.773c0-0.32-0.107-0.747-0.427-0.96l-3.627-4.16c-0.96-1.067-2.24-1.6-3.627-1.6h-8.32c-0.64 0.107-1.067 0.64-1.067 1.387v19.627c0 0.747 0.533 1.28 1.173 1.28h14.507l-1.493-1.92h-12.373z"></path>
<path fill="#444" d="M10.24 17.493h8.533v1.387h-8.533v-1.387z"></path>
<path fill="#444" d="M10.24 13.867h8.533v1.387h-8.533v-1.387z"></path>
<path fill="#444" d="M10.24 10.24h4.267v1.387h-4.267v-1.387z"></path>
<path fill="#444" d="M27.627 21.867h-1.493v-4.8c0-0.533-0.427-0.853-0.853-0.853h-2.027c-0.533 0-0.853 0.427-0.853 0.853v4.8h-1.493c-0.213 0-0.427 0.107-0.533 0.32s-0.107 0.427 0 0.533l2.987 4.053c0.213 0.32 0.533 0.427 0.853 0.427s0.64-0.107 0.853-0.427l2.987-4.053c0.107-0.213 0.107-0.427 0-0.533-0.107-0.213-0.213-0.32-0.427-0.32z"></path>
<path fill="#444" d="M10.24 21.013v1.387h8.533v-1.387z"></path>
</svg>
