<!-- Generated by IcoMoon.io -->
<svg version="1.1" xmlns="http://www.w3.org/2000/svg" width="32" height="32" viewBox="0 0 32 32">
<title>icons_email-form</title>
<path fill="#444" d="M10.987 25.387h-4.16c0 0-0.107-0.107-0.107-0.213v-18.027c0-0.107 0.107-0.213 0.107-0.213h7.68c0.747 0 1.387 0.64 1.387 1.28l0.107 2.987 3.947 0.64c0.213 0 0.427 0.32 0.427 0.533v2.027h1.707v-2.773c0-0.32-0.107-0.747-0.427-0.96l-3.627-4.16c-0.96-1.067-2.24-1.6-3.627-1.6h-8.213c-0.64 0-1.173 0.533-1.173 1.28v19.627c0 0.747 0.533 1.28 1.173 1.28h4.8c0-0.107-0.107-0.32-0.107-0.427v-1.28z"></path>
<path fill="#444" d="M9.28 13.653h8v1.387h-8v-1.387z"></path>
<path fill="#444" d="M9.28 10.24h3.733v1.387h-3.733v-1.387z"></path>
<path fill="#444" d="M21.12 23.573c-0.213 0-0.32-0.107-0.533-0.213l-7.147-5.013v8.107c0 0.427 0.32 0.64 0.64 0.64h13.867c0.427 0 0.64-0.32 0.64-0.64v-8.107l-6.933 5.12c-0.107 0.107-0.32 0.107-0.533 0.107z"></path>
<path fill="#444" d="M27.84 17.067h-13.333l6.613 4.8z"></path>
</svg>
