<!-- Generated by IcoMoon.io -->
<svg version="1.1" xmlns="http://www.w3.org/2000/svg" width="32" height="32" viewBox="0 0 32 32">
<title>icons_calendar-view</title>
<path fill="#444" d="M18.987 24.853c0 0.107 0 0.213 0 0.32s0 0.213-0.107 0.213c0 0.107-0.107 0.107-0.107 0.107s-0.107 0-0.107 0h-5.333c0 0-0.107 0-0.107 0s-0.107-0.107-0.107-0.107c0-0.107 0-0.107-0.107-0.213 0-0.107 0-0.213 0-0.32s0-0.213 0-0.32c0-0.107 0-0.213 0.107-0.213 0-0.107 0.107-0.107 0.107-0.107s0.107 0 0.107 0h1.813v-6.293l-1.493 0.853c-0.107 0.107-0.213 0.107-0.32 0.107s-0.107 0-0.213 0c0 0-0.107-0.107-0.107-0.213s0-0.213 0-0.427c0-0.107 0-0.213 0-0.32s0-0.107 0-0.213 0-0.107 0.107-0.107c0 0 0.107-0.107 0.107-0.107l2.027-1.387c0 0 0.107 0 0.107 0s0.107 0 0.107 0 0.107 0 0.213 0 0.213 0 0.427 0c0.213 0 0.32 0 0.427 0s0.213 0 0.213 0 0.107 0 0.107 0.107c0 0 0 0.107 0 0.107v7.893h1.6c0 0 0.107 0 0.107 0s0.107 0.107 0.107 0.107c0 0.107 0 0.107 0.107 0.213 0.213 0.107 0.213 0.213 0.213 0.32z"></path>
<path fill="#444" d="M22.187 5.333c0.213 0.107 0.427 0.213 0.64 0.213s0.427-0.107 0.64-0.213c0.213-0.107 0.32-0.213 0.427-0.32 0.213-0.213 0.32-0.533 0.32-0.96v-2.24c0-0.747-0.64-1.387-1.387-1.387s-1.387 0.64-1.387 1.387v2.24c0 0.32 0.107 0.64 0.32 0.853 0.107 0.107 0.32 0.32 0.427 0.427z"></path>
<path fill="#444" d="M8.853 5.333c0.213 0.107 0.427 0.107 0.747 0.107 0.213 0 0.427-0.107 0.64-0.213 0.213 0 0.32-0.213 0.427-0.32 0.213-0.213 0.32-0.533 0.32-0.853v-2.24c0-0.747-0.64-1.387-1.387-1.387s-1.387 0.64-1.387 1.387v2.24c0 0.32 0.107 0.64 0.32 0.96 0 0.107 0.213 0.213 0.32 0.32z"></path>
<path fill="#444" d="M25.6 3.733v0.64c0 0.533-0.107 0.96-0.427 1.387-0.107 0.107-0.213 0.213-0.32 0.32-0.533 0.533-1.173 0.96-2.027 0.96s-1.707-0.427-2.133-1.067c-0.107-0.213-0.213-0.32-0.32-0.533-0.107-0.32-0.213-0.747-0.213-1.067v-0.853h-7.893v0.853c0 0.427-0.107 0.747-0.213 1.067-0.107 0.213-0.213 0.32-0.32 0.533-0.533 0.64-1.28 1.067-2.133 1.067s-1.493-0.32-2.027-0.96c-0.107-0.107-0.213-0.213-0.32-0.32-0.213-0.427-0.427-0.96-0.427-1.387v-0.64c-2.667 0.747-4.693 3.307-4.693 6.293v15.040c0 3.627 2.987 6.507 6.507 6.507h15.040c3.627 0 6.507-2.987 6.507-6.507v-15.040c0.107-2.987-1.92-5.547-4.587-6.293zM27.84 25.067c0 2.24-1.813 4.053-4.053 4.053h-15.040c-2.24 0-4.053-1.813-4.053-4.053v-11.947h23.253v11.947z"></path>
</svg>
