<!-- Generated by IcoMoon.io -->
<svg version="1.1" xmlns="http://www.w3.org/2000/svg" width="32" height="32" viewBox="0 0 32 32">
<title>icons_form</title>
<path fill="#4e4e4e" d="M8.128 6.528h12.544c0.192 0 0.384-0.192 0.384-0.384s-0.192-0.384-0.384-0.384h-12.544c-0.192 0-0.384 0.192-0.384 0.384s0.192 0.384 0.384 0.384z"></path>
<path fill="#4e4e4e" d="M3.712 22.4c0 0 0 0 0 0s0 0.064 0 0.064c0 0 0.064 0.064 0.064 0.064s0 0.064 0.064 0.064l5.184 5.184c0 0 0.064 0 0.064 0.064 0 0 0.064 0.064 0.064 0.064 0.064 0 0.128 0 0.128 0h15.424c0.192 0 0.384-0.192 0.384-0.384v-25.792c0-0.192-0.192-0.384-0.384-0.384h-20.608c-0.192 0-0.384 0.192-0.384 0.384v20.608c0 0 0 0.064 0 0.064zM5.056 22.72h3.776v3.776l-3.776-3.776zM24.256 2.176v24.96h-14.592v-4.736c0-0.192-0.192-0.384-0.384-0.384h-4.736v-19.84h19.712z"></path>
<path fill="#4e4e4e" d="M20.8 9.92h-7.296c-0.192 0-0.384 0.192-0.384 0.384v2.496c0 0.192 0.192 0.384 0.384 0.384h7.296c0.192 0 0.384-0.192 0.384-0.384v-2.496c0-0.256-0.192-0.384-0.384-0.384zM20.352 12.416h-6.464v-1.728h6.464v1.728z"></path>
<path fill="#4e4e4e" d="M20.8 16.384h-7.296c-0.192 0-0.384 0.192-0.384 0.384v2.496c0 0.192 0.192 0.384 0.384 0.384h7.296c0.192 0 0.384-0.192 0.384-0.384v-2.496c0-0.192-0.192-0.384-0.384-0.384zM20.352 18.88h-6.464v-1.728h6.464v1.728z"></path>
<path fill="#4e4e4e" d="M10.688 9.92h-2.496c-0.192 0-0.384 0.192-0.384 0.384v2.496c0 0.192 0.192 0.384 0.384 0.384h2.496c0.192 0 0.384-0.192 0.384-0.384v-2.496c0-0.256-0.192-0.384-0.384-0.384zM10.24 12.416h-1.728v-1.728h1.728v1.728z"></path>
<path fill="#4e4e4e" d="M10.688 16.384h-2.496c-0.192 0-0.384 0.192-0.384 0.384v2.496c0 0.192 0.192 0.384 0.384 0.384h2.496c0.192 0 0.384-0.192 0.384-0.384v-2.496c0-0.192-0.192-0.384-0.384-0.384zM10.24 18.88h-1.728v-1.728h1.728v1.728z"></path>
<path fill="#4e4e4e" d="M27.904 4.096h-1.792v0.832h1.408v24.96h-19.776v-1.856l-0.832-0.832v3.072c0 0.192 0.192 0.384 0.384 0.384h20.544c0.192 0 0.384-0.192 0.384-0.384v-25.792c0.064-0.192-0.128-0.384-0.32-0.384z"></path>
</svg>
