<!-- Generated by IcoMoon.io -->
<svg version="1.1" xmlns="http://www.w3.org/2000/svg" width="32" height="32" viewBox="0 0 32 32">
<title>icons_mute</title>
<path fill="#444" d="M21.973 22.933v4.053c0 0.96-0.64 1.28-1.387 0.747l-8-5.547h-6.080c-0.747 0-1.067-0.533-1.067-1.067v-7.68c0-0.747 0.427-1.067 1.067-1.067h1.387l14.080 10.56zM27.307 19.627c-0.533-0.427-4.373-3.307-4.373-3.307v-9.92c0-0.96-0.64-1.28-1.387-0.747l-6.613 4.587-4.907-3.733c-0.533-0.427-1.28-0.32-1.707 0.213s-0.32 1.28 0.213 1.707c0 0 16.853 12.693 17.387 13.12s1.28 0.427 1.707-0.213c0.427-0.533 0.32-1.28-0.32-1.707z"></path>
</svg>
