<!-- Generated by IcoMoon.io -->
<svg version="1.1" xmlns="http://www.w3.org/2000/svg" width="32" height="32" viewBox="0 0 32 32">
<title>icons_list-view</title>
<path fill="#444" d="M10.987 2.453h20.053v5.12h-20.053v-5.12z"></path>
<path fill="#444" d="M6.293 5.013c0 1.473-1.194 2.667-2.667 2.667s-2.667-1.194-2.667-2.667c0-1.473 1.194-2.667 2.667-2.667s2.667 1.194 2.667 2.667z"></path>
<path fill="#444" d="M10.987 13.973h20.053v5.12h-20.053v-5.12z"></path>
<path fill="#444" d="M6.293 16.533c0 1.473-1.194 2.667-2.667 2.667s-2.667-1.194-2.667-2.667c0-1.473 1.194-2.667 2.667-2.667s2.667 1.194 2.667 2.667z"></path>
<path fill="#444" d="M10.987 25.6h20.053v5.12h-20.053v-5.12z"></path>
<path fill="#444" d="M6.293 28.16c0 1.473-1.194 2.667-2.667 2.667s-2.667-1.194-2.667-2.667c0-1.473 1.194-2.667 2.667-2.667s2.667 1.194 2.667 2.667z"></path>
</svg>
