<!-- Generated by IcoMoon.io -->
<svg version="1.1" xmlns="http://www.w3.org/2000/svg" width="32" height="32" viewBox="0 0 32 32">
<title>icons_sign-up-pencil</title>
<path fill="#444" d="M6.4 23.68v6.72c0 0.64 0.427 0.853 0.96 0.533l5.867-3.307c-0.853-0.96-1.92-1.707-3.093-2.453-1.28-0.64-2.453-1.173-3.733-1.493z"></path>
<path fill="#444" d="M15.147 7.040l-8 13.867c1.493 0.32 2.987 0.853 4.48 1.707s2.667 1.813 3.733 2.987l8-13.867c-0.96-1.173-2.24-2.24-3.733-3.093s-2.987-1.387-4.48-1.6z"></path>
<path fill="#444" d="M24.747 9.493l1.28-2.24c0.96-1.6 0.427-3.627-1.067-4.48l-2.773-1.6c-1.493-0.853-3.52-0.213-4.373 1.387l-1.28 2.24c1.493 0.32 2.987 0.853 4.48 1.707s2.773 1.813 3.733 2.987z"></path>
</svg>
