<!-- Generated by IcoMoon.io -->
<svg version="1.1" xmlns="http://www.w3.org/2000/svg" width="32" height="32" viewBox="0 0 32 32">
<title>icons_fax-form</title>
<path fill="#444" d="M25.707 9.173h-2.347v-2.24c0-1.28-0.96-2.24-2.24-2.24h-11.307c-1.28 0-2.24 1.067-2.24 2.24v2.24h-2.347c-0.533 0-0.96 0.427-0.96 0.853v9.387c0 0.533 0.427 0.853 0.853 0.853h2.347v4.48c0 1.28 0.96 2.24 2.24 2.24h11.307c1.28 0 2.24-0.96 2.24-2.24v-4.48h2.347c0.533 0 0.853-0.427 0.853-0.853v-9.387c0.213-0.427-0.213-0.853-0.747-0.853zM9.387 6.933c0-0.213 0.213-0.427 0.427-0.427h11.307c0.213 0 0.427 0.213 0.427 0.427v2.24h-12.16v-2.24zM6.613 12.48c0-0.533 0.427-0.853 0.853-0.853 0.533 0 0.853 0.427 0.853 0.853 0 0.533-0.427 0.853-0.853 0.853-0.427 0.107-0.853-0.32-0.853-0.853zM21.547 24.853c0 0.213-0.213 0.427-0.427 0.427h-11.307c-0.213 0-0.427-0.213-0.427-0.427v-6.72c0-0.213 0.213-0.427 0.427-0.427h11.307c0.213 0 0.427 0.213 0.427 0.427v6.72z"></path>
<path fill="#444" d="M19.307 22.187h-7.573c-0.107 0-0.213 0.107-0.213 0.213v0.853c0 0.107 0.107 0.213 0.213 0.213h7.573c0.107 0 0.213-0.107 0.213-0.213v-0.853c0-0.107-0.107-0.213-0.213-0.213z"></path>
<path fill="#444" d="M19.307 19.413h-7.573c-0.107 0-0.213 0.107-0.213 0.213v0.853c0 0.107 0.107 0.213 0.213 0.213h7.573c0.107 0 0.213-0.107 0.213-0.213v-0.853c0-0.107-0.107-0.213-0.213-0.213z"></path>
</svg>
