<!-- Generated by IcoMoon.io -->
<svg version="1.1" xmlns="http://www.w3.org/2000/svg" width="32" height="32" viewBox="0 0 32 32">
<title>icons_account</title>
<path fill="#212121" d="M16 16.213c2.027 0 3.733-2.88 3.733-5.12 0-2.133-1.707-3.84-3.733-3.84s-3.733 1.707-3.733 3.84c0 2.133 1.707 5.12 3.733 5.12zM22.4 18.88c-0.747-1.067-4.267-1.92-6.4-1.92-2.027 0-5.653 0.853-6.4 1.92-0.747 1.173-1.067 2.667-1.067 3.627 0 0.213 0.107 0.32 0.32 0.32 0.747 0.213 3.093 0.747 7.147 0.747s6.4-0.533 7.147-0.747c0.213-0.107 0.32-0.213 0.32-0.32-0.107-0.96-0.32-2.453-1.067-3.627z"></path>
<path fill="#2c2b2a" d="M16 31.573c-8.533 0-15.573-7.040-15.573-15.573s7.040-15.573 15.573-15.573c8.533 0 15.573 6.933 15.573 15.573s-6.933 15.573-15.573 15.573zM16 2.56c-7.36 0-13.44 6.080-13.44 13.44s6.080 13.44 13.44 13.44c7.36 0 13.44-5.973 13.44-13.44s-5.973-13.44-13.44-13.44z"></path>
</svg>
