<!-- Generated by IcoMoon.io -->
<svg version="1.1" xmlns="http://www.w3.org/2000/svg" width="32" height="32" viewBox="0 0 32 32">
<title>icons_custom-form</title>
<path fill="#4e4e4e" d="M14.336 12.416h-0.64v-0.64c0-0.256-0.192-0.384-0.384-0.384-0.256 0-0.384 0.192-0.384 0.384v0.64h-0.64c-0.256 0-0.384 0.192-0.384 0.384s0.192 0.384 0.384 0.384h0.64v0.64c0 0.256 0.192 0.384 0.384 0.384 0.256 0 0.384-0.192 0.384-0.384v-0.64h0.64c0.256 0 0.384-0.192 0.384-0.384s-0.128-0.384-0.384-0.384z"></path>
<path fill="#4e4e4e" d="M23.616 11.392h-6.976c-0.256 0-0.384 0.192-0.384 0.384v2.112c0 0.256 0.192 0.384 0.384 0.384h6.976c0.256 0 0.384-0.192 0.384-0.384v-2.112c0.064-0.256-0.128-0.384-0.384-0.384zM23.232 13.504h-6.144v-1.28h6.144v1.28z"></path>
<path fill="#4e4e4e" d="M14.336 17.92h-0.64v-0.64c0-0.256-0.192-0.384-0.384-0.384-0.256 0-0.384 0.192-0.384 0.384v0.64h-0.64c-0.256 0-0.384 0.192-0.384 0.384s0.192 0.384 0.384 0.384h0.64v0.64c0 0.256 0.192 0.384 0.384 0.384 0.256 0 0.384-0.192 0.384-0.384v-0.64h0.64c0.256 0 0.384-0.192 0.384-0.384s-0.128-0.384-0.384-0.384z"></path>
<path fill="#4e4e4e" d="M23.616 16.832h-6.976c-0.256 0-0.384 0.192-0.384 0.384v2.112c0 0.256 0.192 0.384 0.384 0.384h6.976c0.256 0 0.384-0.192 0.384-0.384v-2.048c0.064-0.256-0.128-0.448-0.384-0.448zM23.232 18.944h-6.144v-1.28h6.144v1.28z"></path>
<path fill="#4e4e4e" d="M23.616 22.336h-6.976c-0.256 0-0.384 0.192-0.384 0.384v2.112c0 0.256 0.192 0.384 0.384 0.384h6.976c0.256 0 0.384-0.192 0.384-0.384v-2.112c0.064-0.192-0.128-0.384-0.384-0.384zM23.232 24.448h-6.144v-1.28h6.144v1.28z"></path>
<path fill="#4e4e4e" d="M17.92 3.2c-0.768 0-1.408 0.64-1.408 1.408s0.64 1.408 1.408 1.408c0.768 0 1.408-0.64 1.408-1.408 0.064-0.768-0.576-1.408-1.408-1.408zM17.92 5.248c-0.32 0-0.64-0.256-0.64-0.64 0-0.32 0.256-0.64 0.64-0.64 0.32 0 0.64 0.256 0.64 0.64s-0.32 0.64-0.64 0.64z"></path>
<path fill="none" stroke="#515151" stroke-width="0.96" stroke-miterlimit="10" stroke-linecap="butt" stroke-linejoin="round" d="M4.672 14.4l7.744 7.744 0.576 2.56-2.432-0.704-7.744-7.744z"></path>
<path fill="none" stroke="#515151" stroke-width="0.96" stroke-miterlimit="10" stroke-linecap="butt" stroke-linejoin="round" d="M4.16 14.4l-0.448-0.448c-0.384-0.384-1.024-0.384-1.408 0v0c-0.384 0.384-0.384 1.024 0 1.408l0.448 0.448"></path>
<path fill="none" stroke="#515151" stroke-width="0.96" stroke-miterlimit="10" stroke-linecap="butt" stroke-linejoin="round" d="M11.968 22.144l-1.408 1.408"></path>
<path fill="#4e4e4e" d="M26.432 5.76h-2.176v-0.896c0-0.256-0.192-0.384-0.384-0.384h-2.176l-1.664-3.2c-0.064-0.128-0.192-0.192-0.384-0.192h-3.52c-0.128 0-0.32 0.064-0.384 0.192l-1.664 3.2h-2.176c-0.256 0-0.384 0.192-0.384 0.384v0.896h-2.176c-0.96 0-1.792 0.768-1.792 1.792v7.424l0.832 0.768v-8.192c0-0.512 0.448-0.96 0.96-0.96h2.176v1.024c0 0.256 0.192 0.384 0.384 0.384h11.904c0.256 0 0.384-0.192 0.384-0.384v-1.024h2.176c0.512 0 0.96 0.448 0.96 0.96v21.184c0 0.512-0.448 0.96-0.96 0.96h-16.96c-0.512 0-0.96-0.448-0.96-0.96v-4.544l-0.768-0.768v5.312c0 0.96 0.768 1.792 1.792 1.792h17.024c0.96 0 1.792-0.768 1.792-1.792v-21.184c-0.064-1.024-0.896-1.792-1.856-1.792zM23.488 7.232h-11.072v-1.984h1.984c0.128 0 0.32-0.064 0.384-0.192l1.664-3.2h3.072l1.664 3.2c0.064 0.128 0.192 0.192 0.384 0.192h1.984v1.984z"></path>
</svg>
