<!-- Generated by IcoMoon.io -->
<svg version="1.1" xmlns="http://www.w3.org/2000/svg" width="32" height="32" viewBox="0 0 32 32">
<title>icons_expand-screen</title>
<path fill="#444" d="M13.12 16.533c-0.107-0.107-0.32-0.107-0.533 0l-2.347 2.347-0.64-0.64c-0.107-0.107-0.32-0.107-0.427-0.107-0.107 0.107-0.213 0.213-0.213 0.32v4.48c0 0.107 0 0.213 0.107 0.213 0.107 0.107 0.107 0.107 0.213 0.107h4.48c0.107 0 0.32-0.107 0.32-0.213 0.107-0.107 0-0.32-0.107-0.427l-0.64-0.64 2.347-2.347c0.107-0.107 0.107-0.32 0-0.533l-2.56-2.56z"></path>
<path fill="#444" d="M23.253 9.067c-0.107-0.107-0.107-0.107-0.213-0.107h-4.48c-0.107 0-0.32 0.107-0.32 0.213-0.107 0.213-0.107 0.32 0 0.427l0.64 0.64-2.347 2.347c-0.107 0.107-0.107 0.32 0 0.533l2.667 2.667c0.107 0.107 0.32 0.107 0.533 0l2.347-2.347 0.64 0.64c0.107 0.107 0.213 0.107 0.427 0.107 0.107-0.107 0.213-0.213 0.213-0.32v-4.48c-0.107-0.107-0.107-0.213-0.107-0.32z"></path>
<path fill="#444" d="M22.933 3.84h-13.547c-3.093 0-5.547 2.56-5.547 5.547v13.44c0 3.093 2.56 5.547 5.547 5.547h13.44c3.093 0 5.547-2.56 5.547-5.547v-13.44c0.107-2.987-2.453-5.547-5.44-5.547zM26.24 23.253c0 1.6-1.387 2.987-2.987 2.987h-14.187c-1.6 0-2.987-1.387-2.987-2.987v-14.187c0-1.6 1.387-2.987 2.987-2.987h14.187c1.6 0 2.987 1.387 2.987 2.987v14.187z"></path>
</svg>
