<!-- Generated by IcoMoon.io -->
<svg version="1.1" xmlns="http://www.w3.org/2000/svg" width="32" height="32" viewBox="0 0 32 32">
<title>icons_account-menu</title>
<path fill="#212121" d="M10.812 15.855c1.212 0 2.23-1.745 2.23-3.006s-0.97-2.327-2.23-2.327c-1.212 0-2.23 1.018-2.23 2.327 0 1.261 0.97 3.006 2.23 3.006zM14.594 17.455c-0.436-0.679-2.57-1.164-3.782-1.164s-3.345 0.533-3.782 1.164c-0.436 0.679-0.63 1.6-0.679 2.182 0 0.097 0.048 0.194 0.194 0.242 0.436 0.145 1.842 0.436 4.267 0.436s3.83-0.291 4.267-0.436c0.145-0.049 0.194-0.145 0.194-0.242-0.097-0.582-0.291-1.503-0.679-2.182z"></path>
<path fill="#2c2b2a" d="M10.812 24.97c-5.139 0-9.261-4.121-9.261-9.261s4.121-9.261 9.261-9.261c5.091 0 9.261 4.17 9.261 9.261s-4.17 9.261-9.261 9.261zM10.812 7.758c-4.412 0-8 3.588-8 8s3.588 8 8 8c4.412 0 8-3.588 8-8s-3.636-8-8-8z"></path>
<path fill="#050606" d="M22.061 19.151c-0.145 0.533-0.291 1.067-0.485 1.552h8.242v-1.552h-7.758z"></path>
<path fill="#050606" d="M22.448 15.127c0 0.242 0 0.485 0 0.727 0 0.291 0 0.533-0.049 0.824h7.37v-1.552h-7.321z"></path>
<path fill="#050606" d="M21.576 11.152c0.194 0.533 0.339 1.018 0.485 1.552h7.758v-1.552h-8.242z"></path>
</svg>
