<!-- Generated by IcoMoon.io -->
<svg version="1.1" xmlns="http://www.w3.org/2000/svg" width="32" height="32" viewBox="0 0 32 32">
<title>icons_upload-form</title>
<path fill="#515151" d="M25.472 21.12v-0.896c0.256 0 0.512 0 0.704-0.064 2.24-0.384 3.84-2.24 3.84-4.544 0-2.56-2.048-4.608-4.608-4.608-0.192 0-0.384 0-0.576 0.064l-0.448 0.064-0.064-0.448c-0.256-2.304-2.24-4.032-4.544-4.032-0.512 0-1.088 0.128-1.6 0.32l-0.448 0.192-0.128-0.512c-0.576-2.432-2.752-4.096-5.184-4.096-2.944 0-5.376 2.432-5.376 5.376 0 0.064 0 0.128 0 0.128v0.512l-0.384 0.064c-2.752 0.576-4.672 2.944-4.672 5.76 0 2.752 1.984 5.184 4.672 5.76 0.384 0.064 0.768 0.128 1.152 0.128v0.832c-0.448 0-0.896-0.064-1.344-0.128-3.136-0.64-5.376-3.392-5.376-6.592 0-3.072 2.112-5.76 5.056-6.528 0.064-3.456 2.816-6.208 6.272-6.208 2.752 0 5.12 1.728 5.952 4.288 0.448-0.128 0.96-0.192 1.472-0.192 2.624 0 4.864 1.856 5.376 4.416 0.128 0 0.192 0 0.256 0 3.008 0 5.504 2.496 5.504 5.504 0 2.688-1.92 4.992-4.608 5.44-0.32 0-0.64 0-0.896 0z"></path>
<path fill="#515151" d="M22.592 30.72h-12.16c-0.256 0-0.448-0.192-0.448-0.448v-13.952c0-0.256 0.192-0.448 0.448-0.448h3.968v0.896h-3.52v13.056h11.264v-13.056h-3.648v-0.896h4.096c0.256 0 0.448 0.192 0.448 0.448v13.952c0 0.256-0.192 0.448-0.448 0.448z"></path>
<path fill="#515151" d="M16.512 20.224c-0.256 0-0.448-0.192-0.448-0.448v-9.344c0-0.256 0.192-0.448 0.448-0.448s0.448 0.192 0.448 0.448v9.344c0 0.256-0.192 0.448-0.448 0.448z"></path>
<path fill="none" stroke="#515151" stroke-width="0.96" stroke-miterlimit="10" stroke-linecap="round" stroke-linejoin="round" d="M13.44 23.296h6.144"></path>
<path fill="none" stroke="#515151" stroke-width="0.96" stroke-miterlimit="10" stroke-linecap="round" stroke-linejoin="round" d="M13.44 25.856h3.648"></path>
<path fill="#515151" d="M19.776 14.144c-0.128 0-0.256-0.064-0.32-0.128l-2.944-2.944-2.944 2.944c-0.192 0.192-0.448 0.192-0.64 0s-0.192-0.448 0-0.64l3.264-3.264c0.192-0.192 0.448-0.192 0.64 0l3.264 3.264c0.192 0.192 0.192 0.448 0 0.64-0.064 0.128-0.192 0.128-0.32 0.128z"></path>
</svg>
