<!-- Generated by IcoMoon.io -->
<svg version="1.1" xmlns="http://www.w3.org/2000/svg" width="32" height="32" viewBox="0 0 32 32">
<title>icons_edit</title>
<path fill="#444" d="M28.693 8.64l-4.8-4.8c-1.28-1.28-3.413-1.28-4.693 0l-4.48 4.48-11.093 11.2v9.493h9.493l15.573-15.573c1.28-1.387 1.28-3.413 0-4.8zM18.56 12.373l-8.107 8.107c-0.64 0.64-1.6 0.64-2.133 0-0.64-0.64-0.64-1.6 0-2.133v0l8.107-8.107 2.133 2.133zM6.080 21.333c0.213 0.32 0.32 0.533 0.533 0.853 0.747 0.747 1.707 1.173 2.667 1.173 0 1.067 0.427 2.027 1.173 2.667 0.213 0.213 0.533 0.427 0.853 0.533h-5.227v-5.227zM14.293 24.32c-0.64 0.64-1.6 0.64-2.133 0-0.64-0.64-0.64-1.6 0-2.133l8.107-8.107 2.133 2.133-8.107 8.107zM26.987 11.627l-2.773 2.773-2.987-2.987-3.093-2.987 2.773-2.773c0.427-0.32 0.96-0.32 1.28 0l4.8 4.8c0.32 0.32 0.32 0.853 0 1.173z"></path>
</svg>
